# xmcd
#
# Track frame offsets:
#	150
#	15300
#	37187
#	54482
#
# Disc length: 964 seconds
#
# Revision: 0
# Processed by: cddbd v1.5PL3 Copyright (c) Steve Scherf et al.
# Submitted via: EasyCDDAExtractor 5.0.5.1
#
DISCID=2903c204
DTITLE=SLUGGER - 春が来て
DYEAR=2004
DGENRE=jpop
TTITLE0=Lie on Lie
TTITLE1=春が来て
TTITLE2=時代
TTITLE3=サニーサイド -ココロコロコロあの頃のコト-
EXTD=
EXTT0=
EXTT1=
EXTT2=
EXTT3=
PLAYORDER=
